<?xml version="1.0" standalone="no"?>
<!DOCTYPE svg PUBLIC "-//W3C//DTD SVG 20010904//EN"
 "http://www.w3.org/TR/2001/REC-SVG-20010904/DTD/svg10.dtd">
<svg version="1.0" xmlns="http://www.w3.org/2000/svg"
 width="512.000000pt" height="512.000000pt" viewBox="0 0 512.000000 512.000000"
 preserveAspectRatio="xMidYMid meet">
<metadata>
Created by potrace 1.11, written by Peter Selinger 2001-2013
</metadata>
<g transform="translate(0.000000,512.000000) scale(0.100000,-0.100000)"
fill="#000000" stroke="none">
<path d="M1155 4746 c-411 -67 -736 -310 -893 -669 -124 -282 -143 -623 -57
-1019 35 -158 117 -366 205 -518 24 -41 55 -95 69 -120 25 -45 179 -271 191
-280 3 -3 17 -21 30 -40 203 -291 739 -838 1245 -1270 260 -223 589 -480 613
-480 9 0 206 141 222 160 3 3 75 61 160 129 85 69 187 152 225 185 695 603
1141 1083 1439 1549 130 205 229 412 281 592 52 181 69 320 69 555 0 201 -1
223 -28 335 -15 66 -36 138 -46 160 -10 22 -30 67 -44 99 -92 207 -294 409
-517 519 -166 81 -301 115 -496 124 -126 6 -293 -8 -332 -27 -9 -4 -34 -13
-56 -20 -178 -53 -382 -194 -523 -362 -129 -154 -223 -309 -334 -557 l-24 -54
-23 63 c-61 168 -208 414 -329 552 -91 105 -260 248 -291 248 -6 0 -11 4 -11
8 0 12 -165 88 -241 111 -37 11 -89 24 -115 27 -94 13 -309 13 -389 0z"/>
</g>
</svg>
